<svg xmlns="http://www.w3.org/2000/svg">
    <symbol id="icon-search" viewBox="0 0 17 17">
        <path d="M13.458 12.044L17 15.586L15.586 17L12.044 13.458C10.782 14.421 9.21 15 7.5 15C3.35786 15 0 11.6421 0 7.5C0 3.35786 3.35786 0 7.5 0C11.6421 0 15 3.35786 15 7.5C15.0001 9.14309 14.4581 10.7403 13.458 12.044ZM7.5 2C4.467 2 2 4.467 2 7.5C2.00331 10.5362 4.4638 12.9967 7.5 13C10.532 13 13 10.532 13 7.5C13 4.467 10.532 2 7.5 2Z"/>
    </symbol>
    <symbol id="icon-bookmark" viewBox="0 0 14 16">
        <path d="M14 15C14 15.55 13.632 15.741 13.182 15.426L7.819 11.661C7.369 11.346 6.632 11.346 6.182 11.661L0.818 15.426C0.368 15.741 0 15.55 0 15V1C0 0.45 0.45 0 1 0H13C13.55 0 14 0.45 14 1V15Z"/>
    </symbol>
    <symbol id="icon-cart" viewBox="0 0 15 15">
        <path d="M4.5 15C5.32843 15 6 14.3284 6 13.5C6 12.6716 5.32843 12 4.5 12C3.67157 12 3 12.6716 3 13.5C3 14.3284 3.67157 15 4.5 15Z"/>
        <path d="M12.5 15C13.3284 15 14 14.3284 14 13.5C14 12.6716 13.3284 12 12.5 12C11.6716 12 11 12.6716 11 13.5C11 14.3284 11.6716 15 12.5 15Z"/>
        <path d="M15 2H4.07L3.648 0H0V2H2.031L4.016 11H15V9H9.441L15 6.951V2Z"/>
    </symbol>
    <symbol id="icon-login" viewBox="0 0 20 17">
        <path d="M14.1667 8.5L5.71429 0V6H0V11H5.71429V17L14.1667 8.5Z"/>
        <path d="M16.1771 15.01H11.3895V17H16.1771C18.2514 17 19.0381 15.19 19.0619 13.974V3.028C19.0381 1.811 18.2514 0 16.1771 0H11.3895V1.99H16.1771C16.9762 1.99 17.1219 2.671 17.1391 3.047V13.951C17.1229 14.327 16.9762 15.01 16.1771 15.01Z"/>
    </symbol>
    <symbol id="icon-logout" viewBox="0 0 20 17">
        <path d="M20 8.5L11.125 0V6H5.125V11H11.125V17L20 8.5Z"/>
        <path d="M2.10604 13.952V3.048C2.12404 2.672 2.27704 1.991 3.11604 1.991H8.14304V0H3.11604C0.938036 0 0.112036 1.81 0.0870361 3.027V13.973C0.112036 15.189 0.938036 17 3.11604 17H8.14304V15.01H3.11604C2.27704 15.01 2.12404 14.327 2.10604 13.952Z"/>
    </symbol>
    <symbol id="icon-up" viewBox="0 0 11 10">
        <path d="M5.5 0L11 10L0 10"/>
    </symbol>
    <symbol id="icon-down" viewBox="0 0 11 10">
        <path d="M5.5 10L0 0H11"/>
    </symbol>
    <symbol id="icon-user" viewBox="0 0 20 18">
        <path d="M17.881 14.166C15.737 13.431 13.625 12.5 12.674 11.776C12.017 11.275 11.904 10.158 12.157 9.361C13.275 8.458 14.021 6.884 14.021 5.083C14.021 2.276 12.221 0 10 0C7.77902 0 5.97901 2.276 5.97901 5.083C5.97901 6.884 6.72501 8.457 7.84201 9.36C8.09501 10.158 7.98302 11.275 7.32502 11.776C6.37502 12.5 4.26201 13.43 2.11801 14.166C-0.0259852 14.902 1.48343e-05 18 1.48343e-05 18H20C20 18 20.025 14.901 17.881 14.166Z"/>
    </symbol>
    <symbol id="icon-arrow-left" viewBox="0 0 22 40">
        <path d="M19.9244 0.941406L21.9225 2.98921L4.90696 20.436L21.978 37.9375L19.9789 39.9853L0.910614 20.436L19.9244 0.941406Z"/>
    </symbol>
    <symbol id="icon-arrow-right" viewBox="0 0 22 40">
        <path d="M2.07568 39.0586L0.0775032 37.0108L17.0931 19.564L0.0220242 2.06249L2.02115 0.0146904L21.0894 19.564L2.07568 39.0586Z"/>
    </symbol>
</svg>

